<?xml version="1.0" encoding="UTF-8"?>
<svg id="Layer_2" data-name="Layer 2" xmlns="http://www.w3.org/2000/svg" viewBox="0 0 335.92 336.54">
  <defs>
    <style>
      .cls-1 {
        fill: #fcfdfd;
      }

      .cls-2 {
        fill: #0e1b2c;
      }

      .cls-3 {
        fill: #0c1a2c;
      }

      .cls-4 {
        fill: #2cc5b3;
      }

      .cls-5 {
        fill: #2c948d;
      }
    </style>
  </defs>
  <g id="Layer_1-2" data-name="Layer 1">
    <path class="cls-3" d="M302.21,321.03c-35.33-38-70.53-75.53-105.9-113.56,2.94-.58,5.54-1,8.09-1.61,47.21-11.28,73.24-62.33,52.94-108.79-12.91-29.55-36.84-44.45-68.96-45.52-17.63-.59-35.3-.2-52.95-.2-18.75,0-37.49,.1-56.24,.06-6.4-.01-11.47,2.43-15.46,7.36,.43,8.5,.15,9.07,3.54,17.52,3.3,3.75,3.86,7.71,6.95,11.62,6.15,7.8,13.94,10.39,23.79,10.25,29.21-.42,58.42-.17,87.63-.1,3.1,0,6.31,.14,9.29,.93,14.36,3.77,24.2,18.67,22.23,33.28-2.16,16.09-14.35,27.27-29.91,27.41-5.62,.05-11.25,.01-16.87,.02-27.49,.03-54.99,.06-82.84,.05-.65,1.71-1.21,3.46-1.21,5.2-.02,55.06,.02,110.12,.06,165.18,0,1.24,.14,2.48,.23,3.91,.34,.18,.66,.18,1.4,.21,19.74-.02,39.05-.08,58.66,.05,2.77,.08,5.25-.14,7.73-.13,30.38,.15,60.77,.34,91.15,.49,1.38,0,2.75,.28,4.55,.19,6.95,0,13.92-.04,20.38-.46,0,.58,.49,1.11,.49,1.44-2.79,.25-6.41,.64-9.19,.64-61.2,.03-122.39,.02-183.59-.02-4.21,0-8.42-.31-13.14-.79-1.03-.22-1.54-.13-2.05-.04-4.52-1.07-9.04-2.15-14.04-3.65-1.05-.54-1.62-.64-2.19-.75-8.54-2.61-15.71-7.59-22.25-13.42C8.58,303.54,.1,285.69,.07,264.14,0,200.55-.03,136.97,.04,73.38,.08,38.08,23.38,9.15,57.81,1.6c4.53-.99,9.16-1.44,13.79-1.45C136.13,.03,200.65-.08,265.18,.08c34.63,.09,65.13,27.15,69.81,61.4,.48,3.55,.87,7.15,.88,10.72,.05,64.21,.12,128.42-.02,192.64-.05,24.42-11.91,44.02-31.61,58.35"/>
    <path class="cls-2" d="M270.32,335.9c-.31-.42-.31-.75,.04-1.46,12.35-1.77,19.05-3.42,29.46-10.3,.98-.58,2.36-1.57,3.29-2.29,1.64-1.18,1.23-.21,1.99,.7-3.59,2.67-7.79,5.29-11.77,7.24-7.13,3.53-14.79,5.44-23.02,6.1Z"/>
    <path class="cls-2" d="M63.04,335.78c.35-.2,.87-.28,1.5-.18-.37,.22-.86,.25-1.5,.18Z"/>
    <path class="cls-2" d="M46.84,331.5c.38-.12,.95-.01,1.71,.32-.38,.12-.95,.02-1.71-.32Z"/>
    <path class="cls-1" d="M52.82,51.68c6.44,0,17.21-.21,24.37-.21,18.75,.04,37.49-.06,56.24-.06,17.65,0,35.32-.39,52.95,.2,32.12,1.07,56.04,15.97,68.96,45.52,20.3,46.46-5.73,97.51-52.94,108.79-2.56,.61-5.16,1.03-8.09,1.61,35.44,38.11,70.62,75.94,106.02,114.02-.64,1.04-1.38,2.02-2.36,2.6-9.01,5.31-18.67,8.75-29.46,10.05-6.89,.16-13.42,.2-20.48-.07-8.99-9.48-17.4-18.68-25.91-27.8-21.81-23.37-43.65-46.7-65.5-70.04-4.04-4.31-8.17-8.54-12.36-13.11-18.73-20.19-37.35-40.08-55.95-59.99-.93-1-1.61-2.23-2.41-3.35,27.49-.03,54.99-.06,82.48-.08,5.62,0,11.25,.03,16.87-.02,15.56-.14,27.75-11.32,29.91-27.41,1.96-14.61-7.88-29.51-22.23-33.28-2.98-.78-6.19-.92-9.29-.93-29.21-.07-58.43-.33-87.63,.1-9.85,.14-17.64-2.46-23.79-10.25"/>
    <path class="cls-4" d="M145.8,225.74c.13,37.4,.12,74.06,.12,110.73-19.32,.06-38.63,.12-58.6,.01-.83-.2-1-.24-1.18-.27-.08-1.24-.22-2.48-.22-3.73-.04-55.15-.08-110.29-.06-165.44,0-1.75,0,0,.15-7.6"/>
    <path class="cls-5" d="M145.92,336.47c-.29-36.8,0-73.49-.01-110.53,4.06,3.84,8.19,8.06,12.23,12.38,21.85,23.33,43.69,46.67,65.5,70.04,8.51,9.12,17.5,18.68,26.07,28.11"/>
    <path class="cls-5" d="M86.49,334.1c.16-.15,.33-.11,.74,.05-.08,.13-.41,.13-.74-.05Z"/>
  </g>
</svg>