<?xml version="1.0" encoding="utf-8"?>
<!-- Generator: Adobe Illustrator 27.0.0, SVG Export Plug-In . SVG Version: 6.00 Build 0)  -->
<svg version="1.1" id="Layer_2_00000112592650024719786210000015377208451364898968_"
	 xmlns="http://www.w3.org/2000/svg" xmlns:xlink="http://www.w3.org/1999/xlink" x="0px" y="0px" viewBox="0 0 1223.3 305"
	 style="enable-background:new 0 0 1223.3 305;" xml:space="preserve">
<style type="text/css">
	.st0{fill:#FFFFFF;}
	.st1{fill:#2EC2B2;}
	.st2{fill:#2C948D;}
	.st3{enable-background:new    ;}
</style>
<g id="Layer_1-2">
	<g>
		<path class="st0" d="M4.7,38.2c-6.7-9.8-10.1-9.3,17.7-9.3c12.6,0,23.4-0.1,35.1-0.1c23.8,0,47.6,0,71.4,0.1
			c11.6,0,22.9,1.8,33.8,6.1c27.7,11.1,43.7,36.5,42.7,67.6c-0.6,19.8-7.3,36.8-22.3,50.2c-8,7.1-17.4,11.2-27.6,13.6
			c-1,0.2-2.1,0.6-3.8,1c21.8,26.2,43.2,51.9,65.1,78.2h-58.9c-29.6-38.7-59.4-77.7-90-117.7c3.1,0,4.9,0,6.7,0c17,0,34,0.1,51-0.2
			c4.6-0.1,9.5-0.8,13.9-2.2c13.1-4.3,20.5-16,18.9-29.3c-1.6-13.3-11.5-23-25.3-24c-8.6-0.6-17.3-0.3-26-0.4c-1.9,0-3.8,0-6.2,0
			c-22.5,0-44.4-0.1-66.3,0c-3.8,0-6.4-1.1-8.7-4"/>
		<path class="st0" d="M391.9,145.9c4.2-14.7,10.7-27.6,22.1-37.3c20.5-17.4,43.9-21.6,69.3-13.6c8.8,2.8,16,8.2,22.8,15.9
			c1.6-5.8,0.1-11.3,1.1-16.8h38.5c1.1,3.8,1.7,141.2,0.6,151.5h-39.2v-17.4c-1.5,1.2-2.3,1.8-3,2.5c-9.7,10.1-21.6,15.7-35.4,17.1
			c-37.8,3.9-69.7-19.4-77.8-56.6C387.7,176.2,388.1,161.3,391.9,145.9 M451.2,208.6c18.1,8.8,41.5,3.5,50.3-17.9
			c5.9-14.4,5.6-29.2-1.3-43.4c-7-14.3-20.2-21-37.6-19.5c-13.7,1.2-25.8,11.4-30,25.7c-2.5,8.6-2.8,17.4-1.3,26.3
			C433.4,192.2,439.2,202.1,451.2,208.6L451.2,208.6z"/>
		<path class="st0" d="M342.9,200.6c7.1,7.3,14,14.3,21.3,21.8c-4.2,4.5-8.5,8.6-13.3,12.1c-10.7,7.7-22.8,11.7-35.7,13.2
			c-17.2,2-34,0.4-49.9-6.8c-26.8-12.1-41.3-33.3-44.3-62.2c-2.1-20.1,1.7-39.2,13.6-56c15.6-21.9,37.6-31.2,63.9-31.3
			c18.8-0.1,35.8,5.1,49.8,18.1c12.9,12,20.5,26.9,23.2,44.3c1,6.3,1,12.8,1.3,19.2c0.1,3-0.2,5.9-0.3,9.3H262.1
			c2.1,9.6,6.6,16.9,14.1,22.2c9.4,6.6,20,8.5,31.2,7.9c12.6-0.6,23.3-5.8,32.6-14.5C341,198.7,341.8,199.5,342.9,200.6
			 M318.2,130.5c-17.7-12.2-52.3-5.9-55.9,25.1h70.6C330.9,145.5,327.3,136.9,318.2,130.5L318.2,130.5z"/>
		<path class="st1" d="M2.1,217.2c0-45.3,0-90.1,0-134.8c14.9,17.4,28.5,35.8,42.4,53.8c14,18.3,27.8,36.7,41.7,55.1
			c13.8,18.3,27.7,36.6,42.2,55.7H2.1C2.1,237.2,2.1,227.5,2.1,217.2L2.1,217.2z"/>
		<path class="st0" d="M577.6,67.8c0-10.6,0-20.6,0-31h41.1v208.9h-41.1C577.6,186.4,577.6,127.4,577.6,67.8L577.6,67.8z"/>
		<path class="st2" d="M127.8,246.7c-1.1,0.3-2.2,0.5-3.4,0.5c-25.3-0.1-50.7-0.3-76-0.4c-2.1,0-4.1,0.2-6.4,0.1
			c-0.2-30.7-0.2-82.9-0.3-113.8"/>
		<g class="st3">
			<path class="st0" d="M638.7,180.3h23.7c3.1,24,12.7,44.3,53.3,44.3c25.9,0,46-15.2,46-38.1s-10.4-32.4-48.8-38.6
				c-42.3-6.5-67.4-19.7-67.4-55.6c0-31,26.8-54.7,64.9-54.7c40.3,0,65.4,19.7,69.4,55.6h-22c-4.8-25.4-19.5-35.8-47.4-35.8
				c-27.6,0-42,13.8-42,32.7c0,19.7,7.3,29.9,48.5,36.1c44.8,7,68.5,20.6,68.5,58.7c0,33.8-29.6,59.5-69.7,59.5
				C661.8,244.3,642.4,214.7,638.7,180.3z"/>
			<path class="st0" d="M822,48.1c0-8.5,7-15.5,15.5-15.5s15.5,7,15.5,15.5s-7,15.5-15.5,15.5S822,56.5,822,48.1z M826.2,94.3h23.4
				v147.5h-23.4V94.3z"/>
			<path class="st0" d="M889.7,250.3h24c3.4,16.9,17.5,25.7,42.6,25.7c29,0,47.4-13.8,47.4-45.4v-21.4
				c-8.5,14.4-28.5,27.9-49.9,27.9c-38.6,0-67.1-29.3-67.1-69.9v-2c0-40,28.2-73.3,68.8-73.3c24.5,0,39.8,11.8,48.2,26.2V94.3h23.4
				v137.6c-0.3,42.9-29.3,63.7-70.5,63.7C912.8,295.7,893.6,275.1,889.7,250.3z M1004.4,165.4v-2c0-33-18-52.2-46.8-52.2
				c-29.3,0-46.8,21.7-46.8,52.7v2.3c0,32.1,20.6,51.3,45.4,51.3C983.6,217.6,1004.4,198.4,1004.4,165.4z"/>
			<path class="st0" d="M1074.4,23.8h23.4v93.9c6.8-13.8,23.1-25.9,47.4-25.9c30.5,0,51.9,16.6,51.9,59.5v90.5h-23.4v-92.2
				c0-25.9-11-37.5-34.7-37.5c-21.7,0-41.2,13.8-41.2,40.3v89.4h-23.4V23.8z"/>
			<path class="st0" d="M1248.1,204.9v-90.8h-21.2V94.3h21.2V60.8h23.4v33.6h34.4v19.7h-34.4v88.5c0,14.4,6.5,21.4,18.3,21.4
				c7.3,0,13-1.1,18-3.1v19.7c-4.8,1.7-10.4,3.1-20,3.1C1261.1,243.8,1248.1,228,1248.1,204.9z"/>
		</g>
	</g>
</g>
</svg>
