<?xml version="1.0" encoding="UTF-8"?>
<svg id="Layer_2" data-name="Layer 2" xmlns="http://www.w3.org/2000/svg" viewBox="0 0 1223.28 271.85">
  <defs>
    <style>
      .cls-1 {
        fill: #fcfdfd;
      }

      .cls-2 {
        fill: #2ec2b2;
      }

      .cls-3 {
        fill: #0e1b2c;
      }

      .cls-4 {
        fill: #0d1a29;
      }

      .cls-5 {
        fill: #0d1a2b;
      }

      .cls-6 {
        fill: #2c948d;
      }
    </style>
  </defs>
  <g id="Layer_1-2" data-name="Layer 1">
    <path class="cls-5" d="M4.68,14.35C-2,4.56-5.46,5.06,22.4,5.06c12.59,0,23.41-.08,35.11-.07,23.78,.02,47.57,.02,71.35,.09,11.6,.03,22.93,1.77,33.76,6.1,27.7,11.09,43.7,36.53,42.68,67.57-.65,19.76-7.26,36.83-22.32,50.17-7.97,7.06-17.38,11.17-27.62,13.59-1.04,.25-2.06,.55-3.8,1.01,21.81,26.2,43.2,51.9,65.13,78.25h-58.94c-29.6-38.71-59.44-77.71-90-117.68,3.05,0,4.86,0,6.67,0,16.99-.02,33.98,.11,50.97-.16,4.64-.07,9.46-.75,13.86-2.18,13.12-4.26,20.46-16.03,18.85-29.29-1.62-13.33-11.46-23.01-25.26-24.02-8.64-.63-17.35-.31-26.04-.41-1.89-.02-3.78-.01-6.23-.02-22.46-.02-44.36-.12-66.26,.02-3.78,.03-6.43-1.13-8.72-4.04"/>
    <path class="cls-3" d="M391.87,122.12c4.19-14.68,10.71-27.58,22.14-37.3,20.49-17.43,43.85-21.55,69.34-13.58,8.81,2.76,16.05,8.24,22.76,15.86,1.57-5.84,.08-11.3,1.13-16.77h38.49c1.1,3.84,1.67,141.24,.56,151.46h-39.22v-17.36c-1.47,1.22-2.29,1.78-2.96,2.48-9.66,10.14-21.63,15.67-35.4,17.09-37.78,3.9-69.73-19.42-77.78-56.57-3.25-15.01-2.79-29.97,.95-45.31m59.36,62.64c18.08,8.78,41.53,3.49,50.27-17.88,5.89-14.42,5.58-29.22-1.33-43.38-6.98-14.32-20.24-21.02-37.56-19.54-13.72,1.17-25.82,11.44-29.97,25.65-2.52,8.65-2.78,17.44-1.33,26.34,2.04,12.46,7.84,22.29,19.92,28.82Z"/>
    <path class="cls-5" d="M342.87,176.72c7.13,7.3,13.98,14.32,21.26,21.76-4.19,4.5-8.46,8.59-13.33,12.08-10.7,7.66-22.82,11.67-35.71,13.2-17.16,2.04-34,.37-49.87-6.81-26.78-12.1-41.29-33.31-44.33-62.25-2.11-20.14,1.72-39.18,13.62-55.96,15.57-21.94,37.63-31.18,63.9-31.3,18.76-.09,35.81,5.14,49.82,18.12,12.92,11.96,20.5,26.94,23.16,44.27,.97,6.31,1.01,12.77,1.29,19.17,.13,2.96-.19,5.95-.32,9.34h-110.22c2.08,9.61,6.58,16.94,14.13,22.23,9.36,6.55,19.97,8.49,31.2,7.91,12.63-.65,23.27-5.82,32.6-14.46,.94,.9,1.72,1.65,2.79,2.7m-24.66-70.01c-17.68-12.2-52.34-5.89-55.92,25.09h70.6c-1.95-10.09-5.61-18.69-14.69-25.09Z"/>
    <path class="cls-2" d="M2.13,193.36c0-45.31,0-90.05,0-134.79,14.89,17.45,28.51,35.75,42.38,53.85,14.01,18.28,27.79,36.74,41.69,55.11,13.84,18.3,27.69,36.59,42.18,55.73H2.13c0-9.86,0-19.6,0-29.91Z"/>
    <path class="cls-4" d="M577.61,43.95c0-10.56,0-20.56,0-31.05h41.13V221.77h-41.13c0-59.2,0-118.23,0-177.83Z"/>
    <path class="cls-1" d="M450.84,184.59c-11.69-6.36-17.49-16.18-19.53-28.64-1.46-8.91-1.2-17.69,1.33-26.34,4.15-14.21,16.25-24.49,29.97-25.65,17.32-1.47,30.58,5.22,37.56,19.54,6.91,14.17,7.22,28.97,1.33,43.38-8.73,21.38-32.18,26.66-50.66,17.71Z"/>
    <path class="cls-1" d="M318.53,106.96c8.75,6.16,12.41,14.76,14.36,24.84h-70.6c3.58-30.98,38.24-37.3,56.24-24.84Z"/>
    <path class="cls-6" d="M127.84,222.86c-1.06,.33-2.21,.54-3.36,.54-25.34-.13-50.68-.28-76.02-.41-2.06-.01-4.13,.17-6.44,.11-.24-30.69-.24-82.94-.26-113.83"/>
    <g>
      <path class="cls-5" d="M638.69,156.51h23.69c3.1,23.97,12.69,44.27,53.3,44.27,25.94,0,45.97-15.23,45.97-38.07s-10.43-32.43-48.79-38.63c-42.3-6.49-67.4-19.74-67.4-55.55,0-31.02,26.79-54.71,64.86-54.71,40.33,0,65.42,19.74,69.37,55.55h-22c-4.79-25.38-19.46-35.81-47.38-35.81s-42.02,13.82-42.02,32.71,7.33,29.89,48.5,36.1c44.84,7.05,68.53,20.59,68.53,58.66,0,33.84-29.61,59.5-69.65,59.5-53.86,0-73.32-29.61-76.98-64.01Z"/>
      <path class="cls-5" d="M800.84,24.25c0-8.46,7.05-15.51,15.51-15.51s15.51,7.05,15.51,15.51-7.05,15.51-15.51,15.51-15.51-7.05-15.51-15.51Zm4.23,46.25h23.41V217.98h-23.41V70.5Z"/>
      <path class="cls-5" d="M847.37,226.44h23.97c3.38,16.92,17.48,25.66,42.58,25.66,29.04,0,47.38-13.82,47.38-45.4v-21.43c-8.46,14.38-28.48,27.92-49.91,27.92-38.63,0-67.12-29.33-67.12-69.94v-1.97c0-40.04,28.2-73.32,68.81-73.32,24.53,0,39.76,11.84,48.22,26.23v-23.69h23.41V208.11c-.28,42.86-29.33,63.73-70.5,63.73-43.71,0-62.88-20.59-66.83-45.4Zm114.77-84.88v-1.97c0-32.99-18.05-52.17-46.81-52.17s-46.81,21.71-46.81,52.73v2.26c0,32.15,20.59,51.32,45.4,51.32,27.35,0,48.22-19.18,48.22-52.17Z"/>
      <path class="cls-5" d="M1010.93,0h23.41V93.91c6.77-13.82,23.12-25.94,47.38-25.94,30.46,0,51.89,16.64,51.89,59.5v90.52h-23.41V125.77c0-25.94-11-37.51-34.69-37.51-21.71,0-41.17,13.82-41.17,40.33v89.39h-23.41V0Z"/>
      <path class="cls-5" d="M1163.49,181.04V90.24h-21.15v-19.74h21.15V36.94h23.41v33.56h34.4v19.74h-34.4v88.55c0,14.38,6.49,21.43,18.33,21.43,7.33,0,12.97-1.13,18.05-3.1v19.74c-4.79,1.69-10.43,3.1-20.02,3.1-26.79,0-39.76-15.79-39.76-38.92Z"/>
    </g>
  </g>
</svg>