<?xml version="1.0" encoding="UTF-8"?>
<svg id="Layer_2" data-name="Layer 2" xmlns="http://www.w3.org/2000/svg" viewBox="0 0 1223.28 304.98">
  <defs>
    <style>
      .cls-1, .cls-2 {
        fill: #fff;
      }

      .cls-3 {
        fill: #2ec2b2;
      }

      .cls-4 {
        fill: #2c948d;
      }

      .cls-2 {
        font-family: Graphik-Regular, Graphik;
        font-size: 282px;
      }
    </style>
  </defs>
  <g id="Layer_1-2" data-name="Layer 1">
    <g>
      <path class="cls-1" d="M4.68,38.18c-6.68-9.79-10.15-9.29,17.71-9.29,12.59,0,23.41-.08,35.11-.07,23.78,.02,47.57,.02,71.35,.09,11.6,.03,22.93,1.77,33.76,6.1,27.7,11.09,43.7,36.53,42.68,67.57-.65,19.76-7.26,36.83-22.32,50.17-7.97,7.06-17.38,11.17-27.62,13.59-1.04,.25-2.06,.55-3.8,1.01,21.81,26.2,43.2,51.9,65.13,78.25h-58.94c-29.6-38.71-59.44-77.71-90-117.68,3.05,0,4.86,0,6.67,0,16.99-.02,33.98,.11,50.97-.16,4.64-.07,9.46-.75,13.86-2.18,13.12-4.26,20.46-16.03,18.85-29.29-1.62-13.33-11.46-23.01-25.26-24.02-8.64-.63-17.35-.31-26.04-.41-1.89-.02-3.78-.01-6.23-.02-22.46-.02-44.36-.12-66.26,.02-3.78,.03-6.43-1.13-8.72-4.04"/>
      <path class="cls-1" d="M391.87,145.95c4.19-14.68,10.71-27.58,22.14-37.3,20.49-17.43,43.85-21.55,69.34-13.58,8.81,2.76,16.05,8.24,22.76,15.86,1.57-5.84,.08-11.3,1.13-16.77h38.49c1.1,3.84,1.67,141.24,.56,151.46h-39.22v-17.36c-1.47,1.22-2.29,1.78-2.96,2.48-9.66,10.14-21.63,15.67-35.4,17.09-37.78,3.9-69.73-19.42-77.78-56.57-3.25-15.01-2.79-29.97,.95-45.31m59.36,62.64c18.08,8.78,41.53,3.49,50.27-17.88,5.89-14.42,5.58-29.22-1.33-43.38-6.98-14.32-20.24-21.02-37.56-19.54-13.72,1.17-25.82,11.44-29.97,25.65-2.52,8.65-2.78,17.44-1.33,26.34,2.04,12.46,7.84,22.29,19.92,28.82Z"/>
      <path class="cls-1" d="M342.87,200.55c7.13,7.3,13.98,14.32,21.26,21.76-4.19,4.5-8.46,8.59-13.33,12.08-10.7,7.66-22.82,11.67-35.71,13.2-17.16,2.04-34,.37-49.87-6.81-26.78-12.1-41.29-33.31-44.33-62.25-2.11-20.14,1.72-39.18,13.62-55.96,15.57-21.94,37.63-31.18,63.9-31.3,18.76-.09,35.81,5.14,49.82,18.12,12.92,11.96,20.5,26.94,23.16,44.27,.97,6.31,1.01,12.77,1.29,19.17,.13,2.96-.19,5.95-.32,9.34h-110.22c2.08,9.61,6.58,16.94,14.13,22.23,9.36,6.55,19.97,8.49,31.2,7.91,12.63-.65,23.27-5.82,32.6-14.46,.94,.9,1.72,1.65,2.79,2.7m-24.66-70.01c-17.68-12.2-52.34-5.89-55.92,25.09h70.6c-1.95-10.09-5.61-18.69-14.69-25.09Z"/>
      <path class="cls-3" d="M2.13,217.19c0-45.31,0-90.05,0-134.79,14.89,17.45,28.51,35.75,42.38,53.85,14.01,18.28,27.79,36.74,41.69,55.11,13.84,18.3,27.69,36.59,42.18,55.73H2.13c0-9.86,0-19.6,0-29.91Z"/>
      <path class="cls-1" d="M577.61,67.78c0-10.56,0-20.56,0-31.05h41.13V245.6h-41.13c0-59.2,0-118.23,0-177.83Z"/>
      <path class="cls-4" d="M127.84,246.69c-1.06,.33-2.21,.54-3.36,.54-25.34-.13-50.68-.28-76.02-.41-2.06-.01-4.13,.17-6.44,.11-.24-30.69-.24-82.94-.26-113.83"/>
      <text class="cls-2" transform="translate(625.16 241.81)"><tspan x="0" y="0">Sight</tspan></text>
    </g>
  </g>
</svg>